<svg width="40" height="49" viewBox="0 0 40 49" fill="none" xmlns="http://www.w3.org/2000/svg">
<path d="M11.3243 7.17511V7.78597C13.1993 7.78597 15.6511 8.23201 15.6511 11.3758V25.3594C10.8755 25.3594 8.31158 23.534 7.73451 19.0721C7.27362 15.5079 7.29005 9.44221 3.57959 7.14536C2.64519 6.56713 1.47459 6.22715 0 6.22715V7.17511C0 7.17511 1.49011 6.7166 2.12879 8.68427C2.30288 9.22075 2.4142 9.93623 2.4142 10.8921C2.4142 15.3539 2.22189 22.3277 7.28576 24.9928C12.3498 27.658 15.6511 27.3199 15.6511 27.3199V38.6098C15.6511 41.7534 13.1993 42.1994 11.3243 42.1994V42.8105H17.6684V7.17511H11.3243Z" fill="#257799"/>
<path d="M24.0124 42.1994C22.1374 42.1994 19.6856 41.7534 19.6856 38.6098V27.3199C19.6856 27.3199 22.9868 27.658 28.0509 24.9928C33.1147 22.3277 32.9226 15.3539 32.9226 10.8921C32.9226 9.93623 33.0338 9.22075 33.2078 8.68427C33.8465 6.7166 35.3368 7.17511 35.3368 7.17511V6.22715C33.862 6.22715 32.6914 6.56689 31.757 7.14536C28.0466 9.44221 28.063 15.5079 27.6021 19.0721C27.0253 23.534 24.4611 25.3594 19.6856 25.3594V11.3758C19.6856 8.23201 22.1374 7.78597 24.0124 7.78597V7.17511H17.6685V42.8105H24.0124V42.1994Z" fill="white"/>
<path d="M17.6685 42.8105V49H40.0001V0H17.6685V7.17512H24.0124V7.78598C22.1374 7.78598 19.6856 8.23201 19.6856 11.3758V25.3594C24.4612 25.3594 27.0254 23.534 27.6022 19.0721C28.0631 15.5079 28.0467 9.44222 31.7571 7.14537C32.6915 6.56689 33.8621 6.22715 35.3369 6.22715V7.17512C35.3369 7.17512 33.8466 6.71661 33.2079 8.68428C33.0338 9.22076 32.9227 9.93623 32.9227 10.8921C32.9227 15.3539 33.1148 22.3277 28.0509 24.9928C22.9869 27.658 19.6856 27.3199 19.6856 27.3199V38.6098C19.6856 41.7534 22.1374 42.1994 24.0124 42.1994V42.8105H17.6685Z" fill="#EDA62F"/>
</svg>
